<svg width="46" height="52" viewBox="0 0 46 52" fill="none" xmlns="http://www.w3.org/2000/svg">
<g opacity="0.5">
<path d="M45.6372 35.9007C44.2388 33.1424 39.1491 31.7484 36.8861 27.2843C34.6226 22.8207 28.6701 14.5692 26.8196 9.00821C24.9686 3.44718 21.7772 -2.46347 18.9699 1.06458C16.1631 4.59219 22.5487 9.06977 23.1648 12.4981C16.9778 16.804 12.5106 20.8012 10.4344 20.1226C8.35968 16.0311 5.29494 7.59761 1.20337 9.67238C-2.8882 11.7467 4.47573 17.9701 8.06624 25.0496C11.6559 32.129 11.1206 34.2712 14.7988 41.5242C18.4769 48.7775 18.5614 54.9681 26.2368 48.8944C30.2012 45.7573 35.995 44.2573 39.3239 41.3224C42.6534 38.3889 47.0357 38.6585 45.6372 35.9007ZM2.8018 11.5858C5.25045 10.7954 9.70871 20.8263 9.70871 20.8263C7.32612 20.0471 0.353604 12.3763 2.8018 11.5858ZM24.1296 11.5418C22.4323 8.19394 17.7638 1.57597 20.438 1.95659C24.2182 2.49494 24.1296 11.5418 24.1296 11.5418Z" fill="#DFA762"/>
<path d="M14.1607 29.8062C14.1607 29.8062 23.9566 37.2307 26.696 35.8422C29.435 34.4527 33.8424 37.5956 36.8213 37.2546C35.2373 38.0576 32.3909 37.7475 30.1486 37.0137C27.9062 36.2803 22.6089 39.434 14.1607 29.8062Z" fill="#BB7013"/>
<path d="M10.86 23.297C10.86 23.297 21.3741 17.8487 24.9857 13.9131C24.0218 16.8583 13.9364 23.0228 10.86 23.297Z" fill="#BB7013"/>
<path d="M21.3795 51.5934C21.0676 51.5934 20.7683 51.5466 20.4794 51.4545C18.4873 50.8159 17.4165 48.0941 16.2813 45.2122C15.6046 43.4925 14.9044 41.7143 13.9877 40.3477C12.2464 37.7517 9.6054 28.9821 9.49395 28.61C9.4607 28.4999 9.52272 28.3835 9.63371 28.3507C9.74336 28.3161 9.8602 28.3799 9.89345 28.49C9.92086 28.5804 12.6274 37.5715 14.3337 40.1154C15.2765 41.5197 15.9847 43.319 16.6696 45.0594C17.7665 47.8465 18.8028 50.4789 20.6066 51.0573C21.5422 51.3574 22.6342 51.0887 23.9454 50.2376C24.0421 50.176 24.171 50.203 24.2339 50.2996C24.2964 50.3967 24.269 50.5256 24.1724 50.5886C23.1361 51.2599 22.214 51.5934 21.3795 51.5934Z" fill="#BB7013"/>
<path d="M25.9851 28.7587C25.9617 28.7587 25.9384 28.7546 25.915 28.7465C25.8062 28.7074 25.7501 28.5879 25.7896 28.4796C27.9664 22.431 25.8053 13.5819 25.7833 13.4934C25.755 13.3815 25.8233 13.2687 25.9352 13.2404C26.0476 13.2129 26.1599 13.2803 26.1882 13.3922C26.2107 13.4821 28.4023 22.4517 26.1819 28.6203C26.1509 28.7056 26.0709 28.7587 25.9851 28.7587Z" fill="#BB7013"/>
<path d="M12.5783 24.2681C7.51253 24.2681 2.53165 15.6221 2.30921 15.2316C2.25214 15.1313 2.28719 15.0042 2.3874 14.9471C2.48716 14.8909 2.61479 14.9246 2.67186 15.0257C2.72803 15.1242 8.35332 24.8985 13.4281 23.7576C13.5396 23.7333 13.6519 23.8034 13.6771 23.9157C13.7027 24.0281 13.6317 24.1395 13.5193 24.1652C13.2057 24.2348 12.8916 24.2681 12.5783 24.2681Z" fill="#BB7013"/>
<path d="M33.7274 44.8994C33.6429 44.8994 33.5634 44.8482 33.5319 44.7641C33.4911 44.6567 33.5454 44.5363 33.6537 44.4954C36.483 43.4299 37.544 42.5491 38.6674 41.6171C39.7203 40.7436 40.8087 39.8399 43.3719 38.7196C44.7628 38.1116 45.5042 37.4375 45.5766 36.7162C45.7118 35.3686 43.6236 33.9027 41.7811 32.6094C41.4311 32.3631 41.0896 32.1241 40.7745 31.8922C37.9053 29.7864 34.5579 23.656 34.4163 23.3963C34.3615 23.2952 34.3988 23.1685 34.5004 23.1136C34.6019 23.0588 34.7282 23.0961 34.7835 23.1977C34.8172 23.2606 38.2275 29.506 41.0217 31.5561C41.3345 31.7857 41.6733 32.0234 42.0211 32.2679C43.9575 33.6263 46.1513 35.1668 45.9918 36.7576C45.9024 37.6523 45.1002 38.4194 43.5395 39.1015C41.0302 40.198 39.9648 41.0824 38.9343 41.938C37.783 42.8934 36.6965 43.7957 33.8011 44.8854C33.7769 44.8953 33.7521 44.8994 33.7274 44.8994Z" fill="#BB7013"/>
</g>
</svg>
