<svg width="46" height="46" viewBox="0 0 46 46" fill="none" xmlns="http://www.w3.org/2000/svg">
<path d="M16.721 13.6829L6.14049 3.1024L2.99026 6.25263L13.5834 16.8458C12.2275 18.8499 12.4564 21.599 14.2454 23.388L33.5732 42.7158L34.4133 43.5559L35.0433 44.1859C35.7392 44.8818 36.9031 45.0038 37.5473 44.3596L44.3503 37.5566C44.9944 36.9125 44.8747 35.7463 44.1789 35.0504L43.5488 34.4203L42.7087 33.5803L23.3809 14.2525C21.5673 12.4388 18.6971 12.2988 16.721 13.6829Z" fill="#287604"/>
<path d="M24.9364 17.278L17.376 24.8384L22.6262 30.0886L30.1865 22.5282L24.9364 17.278Z" fill="#C4A56E"/>
<path d="M6.14049 3.10221L2.99026 6.25244L7.61049 10.8727L10.7607 7.72244L6.14049 3.10221Z" fill="#C4A56E"/>
<path d="M22.9491 16.5066C23.2541 16.8116 23.2541 17.3062 22.9491 17.6112C22.6441 17.9161 22.1496 17.9161 21.8446 17.6112L19.6355 15.4021C19.3306 15.0971 19.3306 14.6026 19.6355 14.2976C19.9405 13.9926 20.4351 13.9926 20.7401 14.2976L22.9491 16.5066Z" fill="white"/>
<path d="M41.8487 35.4062C42.1536 35.7112 42.1536 36.2057 41.8487 36.5107C41.5437 36.8157 41.0491 36.8157 40.7441 36.5107L30.0671 25.8336C29.7621 25.5287 29.7621 25.0341 30.0671 24.7291C30.372 24.4241 30.8666 24.4241 31.1716 24.7291L41.8487 35.4062Z" fill="white"/>
<path opacity="0.2" d="M16.7049 13.6988L10.7447 7.73853L6.07438 3.06823L4.35623 4.78638L40.6828 41.113L44.2948 37.5011C44.9389 36.8569 44.8815 35.7391 44.1856 35.0432L43.5556 34.4132L42.7155 33.5731L23.3878 14.2454C21.5742 12.4318 18.7191 12.2767 16.7049 13.6988Z" fill="black"/>
</svg>
