<svg width="151" height="59" viewBox="0 0 151 59" fill="none" xmlns="http://www.w3.org/2000/svg">
<path d="M65.1764 48.8213C48.5772 49.2119 26.8517 39.2198 18.0639 34.1749L28.8046 32.4662L104.233 28.8046C105.047 29.2114 108.871 32.2221 109.116 39.3011C103.989 37.3483 100.816 41.254 96.9102 42.7186C94.4691 44.1833 81.7756 48.4307 65.1764 48.8213Z" fill="#F5EDE5"/>
<path d="M12.1007 49.3701C12.0325 49.4368 11.92 49.4358 11.8575 49.3637C10.8209 48.1665 11.7824 47.1446 10.5985 45.9344C9.37212 44.6807 8.29749 45.7319 7.07107 44.4782C5.845 43.2248 6.91963 42.1736 5.69373 40.9204C4.46679 39.6662 3.39216 40.7174 2.16539 39.4633C1.08001 38.3537 1.79599 37.4031 1.12603 36.3302C1.06962 36.2399 1.11311 36.1203 1.21326 36.0844L20.075 29.3392C21.7596 28.7367 23.6409 29.1701 24.892 30.449C26.661 32.2575 26.6291 35.1578 24.8207 36.9268L12.1007 49.3701Z" fill="#ED9A33"/>
<path d="M12.9978 48.4832C11.8401 47.2463 12.876 46.2021 11.6613 44.9604C10.4305 43.7022 9.35198 44.7573 8.12118 43.4991C6.89073 42.2412 7.96929 41.1862 6.73884 39.9283C5.50752 38.6696 4.42896 39.7246 3.19781 38.4661C2.22455 37.4712 2.69458 36.6034 2.32597 35.6619" stroke="#AF651B" stroke-width="0.250548" stroke-miterlimit="10"/>
<path d="M146.724 33.137C144.522 28.6318 136.338 24.8003 133.069 24.6734L131.294 38.6358C135.821 39.0821 143.142 35.8569 146.724 33.137Z" fill="#DE8C5C"/>
<path d="M146.723 33.137L132.381 31.391C132.071 32.0989 131.432 34.5436 131.352 38.6585C138.472 39.3649 144.566 35.2719 146.723 33.137Z" fill="#DD6E2D"/>
<circle cx="119.859" cy="27.4178" r="15.9363" transform="rotate(60.4021 119.859 27.4178)" fill="#1A1A1A"/>
<circle cx="127.234" cy="27.919" r="5.40695" transform="rotate(60.4021 127.234 27.919)" fill="#F5EDE5"/>
<circle cx="128.764" cy="27.923" r="1.99204" transform="rotate(60.4021 128.764 27.923)" fill="white"/>
<circle cx="128.764" cy="27.923" r="1.42288" transform="rotate(60.4021 128.764 27.923)" fill="#05101F"/>
<circle cx="129.799" cy="28.2082" r="0.664012" transform="rotate(60.4021 129.799 28.2082)" fill="white"/>
<mask id="mask0_1_2247" style="mask-type:alpha" maskUnits="userSpaceOnUse" x="103" y="11" width="33" height="33">
<circle cx="119.859" cy="27.5864" r="15.9363" transform="rotate(60.4021 119.859 27.5864)" fill="#1A1A1A"/>
</mask>
<g mask="url(#mask0_1_2247)">
<path d="M128.409 39.0501C125.015 19.217 107.587 19.717 99.2972 22.4461C97.466 28.4752 93.8774 40.7051 94.173 41.3924C94.5425 42.2516 132.651 63.8416 128.409 39.0501Z" fill="#F5EDE5"/>
</g>
<path d="M116.828 38.4227L113.741 35.2269C109.568 30.9074 109.037 24.2382 112.473 19.3127L124.056 2.7105" stroke="#E65577" stroke-width="2.95061" stroke-miterlimit="10"/>
<path d="M121.377 2.63882L125.051 5.20241C125.225 5.32341 125.463 5.28071 125.584 5.10756L126.834 3.31524C126.955 3.14182 126.913 2.90336 126.74 2.78255L123.065 0.21896C122.892 0.0979648 122.653 0.140399 122.532 0.313823L121.282 2.10614C121.161 2.27956 121.204 2.51802 121.377 2.63882Z" fill="#E98DA2"/>
<path d="M112.113 29.5045L109.329 30.2981" stroke="#E98DA2" stroke-width="0.983536" stroke-miterlimit="10" stroke-linecap="round"/>
<path d="M112.597 30.9711L109.87 31.9456" stroke="#E98DA2" stroke-width="0.983536" stroke-miterlimit="10" stroke-linecap="round"/>
<path d="M114.297 39.4675L116.267 41.3818C116.421 41.5309 116.666 41.5274 116.815 41.374L119.716 38.3888C119.865 38.2353 119.862 37.9899 119.708 37.8408L117.738 35.9265C117.584 35.7774 117.339 35.7809 117.19 35.9344L114.289 38.9195C114.14 39.073 114.144 39.3184 114.297 39.4675Z" fill="#E98DA2"/>
<path d="M82.5079 21.2372C95.2015 25.1429 102.932 21.8068 106.674 18.552L120.344 21.2372C105.499 39.0024 80.9387 39.8953 63.8686 40.5159L63.7118 40.5216C50.2859 41.0098 29.2928 36.86 22.2137 35.1513C15.1346 33.4425 10.4966 30.5132 10.4966 30.5132L20.0167 29.2927L11.9612 24.6547C13.019 25.2243 16.111 26.3146 20.0167 26.1193C24.8989 25.8752 36.616 25.1429 44.6715 21.2372C52.727 17.3315 66.641 16.3551 82.5079 21.2372Z" fill="#1A1A1A"/>
<mask id="mask1_1_2247" style="mask-type:alpha" maskUnits="userSpaceOnUse" x="103" y="11" width="33" height="33">
<circle cx="119.938" cy="27.6035" r="15.9363" transform="rotate(60.4021 119.938 27.6035)" fill="#1A1A1A"/>
</mask>
<g mask="url(#mask1_1_2247)">
<path d="M120.624 30.6176L117.203 30.5151C116.139 30.4832 115.306 29.4884 115.342 28.2929L115.424 25.5352C115.46 24.3397 116.352 23.3966 117.415 23.4284L120.836 23.5309L120.624 30.6176Z" fill="#E98DA2"/>
<path d="M140.138 21.0163L127.3 20.6318C123.447 20.5164 120.087 23.3785 120.051 26.9973C120.015 30.5068 122.981 33.421 126.733 33.5334C128.841 33.5965 130.75 32.7612 132.052 31.3961C132.732 30.6821 133.949 30.743 134.589 31.494C135.898 33.0297 137.937 33.9995 140.229 33.9226C143.671 33.8072 146.537 31.2193 146.799 27.9958C147.102 24.2918 144.047 21.1334 140.138 21.0163Z" fill="#93C9D5" fill-opacity="0.5"/>
<g opacity="0.5">
<mask id="mask2_1_2247" style="mask-type:luminance" maskUnits="userSpaceOnUse" x="120" y="20" width="27" height="14">
<path d="M140.138 21.0163L127.3 20.6318C123.447 20.5164 120.087 23.3785 120.051 26.9973C120.015 30.5068 122.981 33.421 126.733 33.5334C128.841 33.5965 130.75 32.7612 132.052 31.3961C132.732 30.6821 133.949 30.743 134.589 31.494C135.898 33.0297 137.937 33.9995 140.229 33.9226C143.671 33.8072 146.537 31.2193 146.799 27.9958C147.102 24.2918 144.047 21.1334 140.138 21.0163Z" fill="white"/>
</mask>
<g mask="url(#mask2_1_2247)">
<path d="M127.253 20.7933L123.889 20.6926L115.842 33.922L119.207 34.0228L127.253 20.7933Z" fill="#BBEDF2"/>
</g>
<mask id="mask3_1_2247" style="mask-type:luminance" maskUnits="userSpaceOnUse" x="120" y="20" width="27" height="14">
<path d="M140.138 21.0163L127.3 20.6318C123.447 20.5164 120.087 23.3785 120.051 26.9973C120.015 30.5068 122.981 33.421 126.733 33.5334C128.841 33.5965 130.75 32.7612 132.052 31.3961C132.732 30.6821 133.949 30.743 134.589 31.494C135.898 33.0297 137.937 33.9995 140.229 33.9226C143.671 33.8072 146.537 31.2193 146.799 27.9958C147.102 24.2918 144.047 21.1334 140.138 21.0163Z" fill="white"/>
</mask>
<g mask="url(#mask3_1_2247)">
<path d="M131.694 20.9264L129.475 20.8599L121.428 34.0894L123.647 34.1558L131.694 20.9264Z" fill="#BBEDF2"/>
</g>
</g>
<path d="M140.138 21.0163L127.3 20.6318C123.447 20.5164 120.087 23.3785 120.051 26.9973C120.015 30.5068 122.981 33.421 126.733 33.5334C128.841 33.5965 130.75 32.7612 132.052 31.3961C132.732 30.6821 133.949 30.743 134.589 31.494C135.898 33.0297 137.937 33.9995 140.229 33.9226C143.671 33.8072 146.537 31.2193 146.799 27.9958C147.102 24.2918 144.047 21.1334 140.138 21.0163Z" stroke="#E65577" stroke-width="1.61961" stroke-miterlimit="10"/>
</g>
<path d="M116.828 38.4227L113.741 35.2269C109.568 30.9074 109.037 24.2382 112.473 19.3127L124.056 2.7105" stroke="#E65577" stroke-width="2.95061" stroke-miterlimit="10"/>
<path d="M121.377 2.63882L125.051 5.20241C125.225 5.32341 125.463 5.28071 125.584 5.10756L126.834 3.31524C126.955 3.14182 126.913 2.90336 126.74 2.78255L123.065 0.21896C122.892 0.0979648 122.653 0.140399 122.532 0.313823L121.282 2.10614C121.161 2.27956 121.204 2.51802 121.377 2.63882Z" fill="#E98DA2"/>
<path d="M112.113 29.5045L109.329 30.2981" stroke="#E98DA2" stroke-width="0.983536" stroke-miterlimit="10" stroke-linecap="round"/>
<path d="M112.597 30.9711L109.87 31.9456" stroke="#E98DA2" stroke-width="0.983536" stroke-miterlimit="10" stroke-linecap="round"/>
<path d="M114.297 39.4675L116.267 41.3818C116.421 41.5309 116.666 41.5274 116.815 41.374L119.716 38.3888C119.865 38.2353 119.862 37.9899 119.708 37.8408L117.738 35.9265C117.584 35.7774 117.339 35.7809 117.19 35.9344L114.289 38.9195C114.14 39.073 114.144 39.3184 114.297 39.4675Z" fill="#E98DA2"/>
<path d="M81.3227 43.3535C82.8034 39.4065 79.2182 37.266 77.2405 36.6891C76.6251 36.3657 74.6495 35.7727 71.67 35.9883C67.3393 37.1656 54.1903 47.8128 53.2152 55.5631C63.9328 56.4195 79.4718 48.2873 81.3227 43.3535Z" fill="#1A1A1A"/>
</svg>
